<svg width="645" height="618" viewBox="0 0 645 618" fill="none" xmlns="http://www.w3.org/2000/svg">
<g clip-path="url(#clip0)">
<path d="M534.794 350.741C453.372 473.883 415.076 618 267.397 618C119.718 618 0 498.344 0 350.741C0 203.138 133.441 145.619 267.397 83.482C702.493 -118.344 716.981 75.2049 534.794 350.741Z" fill="#1473E6"/>
<path d="M506.086 121.193C533.719 121.193 556.12 98.8038 556.12 71.1848C556.12 43.5658 533.719 21.1762 506.086 21.1762C478.452 21.1762 456.051 43.5658 456.051 71.1848C456.051 98.8038 478.452 121.193 506.086 121.193Z" fill="#E6E6E6"/>
<path d="M501.164 42.4913C504.335 42.4913 506.906 39.922 506.906 36.7526C506.906 33.5832 504.335 31.0139 501.164 31.0139C497.993 31.0139 495.423 33.5832 495.423 36.7526C495.423 39.922 497.993 42.4913 501.164 42.4913Z" fill="#CBCBCB"/>
<path d="M511.007 99.8782C514.178 99.8782 516.749 97.3089 516.749 94.1395C516.749 90.9701 514.178 88.4008 511.007 88.4008C507.836 88.4008 505.265 90.9701 505.265 94.1395C505.265 97.3089 507.836 99.8782 511.007 99.8782Z" fill="#CBCBCB"/>
<path d="M533.153 66.2659C535.418 66.2659 537.255 64.4307 537.255 62.1668C537.255 59.903 535.418 58.0678 533.153 58.0678C530.888 58.0678 529.052 59.903 529.052 62.1668C529.052 64.4307 530.888 66.2659 533.153 66.2659Z" fill="#CBCBCB"/>
<path d="M486.4 88.4009C493.648 88.4009 499.524 82.5282 499.524 75.2838C499.524 68.0395 493.648 62.1668 486.4 62.1668C479.152 62.1668 473.276 68.0395 473.276 75.2838C473.276 82.5282 479.152 88.4009 486.4 88.4009Z" fill="#CBCBCB"/>
<path d="M333.836 156.445C338.366 156.445 342.038 152.775 342.038 148.247C342.038 143.719 338.366 140.049 333.836 140.049C329.306 140.049 325.634 143.719 325.634 148.247C325.634 152.775 329.306 156.445 333.836 156.445Z" fill="#FC8E51"/>
<path d="M553.659 177.76C558.189 177.76 561.862 174.09 561.862 169.562C561.862 165.035 558.189 161.364 553.659 161.364C549.129 161.364 545.457 165.035 545.457 169.562C545.457 174.09 549.129 177.76 553.659 177.76Z" fill="#FC8E51"/>
<path d="M456.051 190.058C458.769 190.058 460.973 187.855 460.973 185.139C460.973 182.422 458.769 180.22 456.051 180.22C453.333 180.22 451.13 182.422 451.13 185.139C451.13 187.855 453.333 190.058 456.051 190.058Z" fill="#E6E6E6"/>
<path d="M77.1021 345.002C79.8201 345.002 82.0235 342.8 82.0235 340.083C82.0235 337.367 79.8201 335.165 77.1021 335.165C74.3841 335.165 72.1807 337.367 72.1807 340.083C72.1807 342.8 74.3841 345.002 77.1021 345.002Z" fill="#FC8E51"/>
<path d="M368.286 476.992C371.004 476.992 373.208 474.79 373.208 472.073C373.208 469.357 371.004 467.154 368.286 467.154C365.568 467.154 363.365 469.357 363.365 472.073C363.365 474.79 365.568 476.992 368.286 476.992Z" fill="#FC8E51"/>
<path d="M445.389 331.095L442.934 333.533L440.494 331.078L438.856 332.704L441.296 335.159L438.839 337.597L440.466 339.234L442.922 336.796L445.362 339.251L446.999 337.625L444.559 335.17L447.016 332.732L445.389 331.095Z" fill="#6C63FF"/>
<path d="M119.756 411.437L117.299 413.875L114.86 411.42L113.222 413.045L115.662 415.501L113.205 417.939L114.832 419.576L117.288 417.137L119.728 419.593L121.366 417.967L118.926 415.512L121.383 413.073L119.756 411.437Z" fill="#E6E6E6"/>
<path d="M139.441 268.789L136.985 271.227L134.546 268.773L132.907 270.398L135.348 272.853L132.891 275.292L134.518 276.928L136.973 274.49L139.413 276.945L141.051 275.32L138.611 272.864L141.068 270.426L139.441 268.789Z" fill="#E6E6E6"/>
<path d="M568.425 117.124L565.968 119.562L563.529 117.107L561.891 118.732L564.331 121.188L561.875 123.626L563.501 125.263L565.958 122.825L568.397 125.279L570.035 123.654L567.595 121.199L570.052 118.76L568.425 117.124Z" fill="#E6E6E6"/>
<path d="M374.849 185.168L372.393 187.607L369.953 185.151L368.315 186.777L370.755 189.232L368.299 191.671L369.925 193.308L372.381 190.869L374.821 193.324L376.459 191.699L374.019 189.243L376.475 186.805L374.849 185.168Z" fill="#E6E6E6"/>
<path opacity="0.8" d="M391.886 306.727L416.808 277.566L441.73 248.405L455.799 231.943C456.578 231.032 455.376 229.611 454.598 230.522L429.676 259.683L404.754 288.844L390.685 305.306C389.906 306.217 391.108 307.638 391.886 306.727V306.727Z" fill="url(#paint0_linear)"/>
<path opacity="0.8" d="M347.593 411.663L372.515 382.502L397.437 353.341L411.506 336.879C412.285 335.968 411.083 334.547 410.305 335.458L385.383 364.619L360.461 393.78L346.392 410.242C345.613 411.153 346.815 412.574 347.593 411.663V411.663Z" fill="url(#paint1_linear)"/>
<path d="M221.874 250.314H268.627V268.702C268.627 271.87 267.368 274.908 265.127 277.148C262.885 279.388 259.846 280.647 256.676 280.647H233.825C230.655 280.647 227.616 279.388 225.374 277.148C223.133 274.908 221.874 271.87 221.874 268.702V250.314H221.874Z" fill="#2F2E41"/>
<path d="M284.212 494.618C273.565 505.4 262.902 505.472 252.223 494.966L244.02 422.475L238.279 495.117C227.607 503.75 217.661 504.913 208.75 495.438C200.25 432.674 195.629 374.366 203.009 329.836L187.424 266.71L222.694 250.314C229.797 267.874 218.595 276.856 243.926 276.555C269.034 276.257 267.159 266.817 266.167 250.314L298.612 262.786C301.375 263.849 303.629 265.924 304.914 268.59C306.198 271.256 306.417 274.311 305.526 277.133L289.133 329.016C295.444 355.207 288.965 428.063 284.212 494.618Z" fill="#E6E6E6"/>
<path d="M234.998 557.744C234.998 557.744 208.813 560.036 205.305 558.593C205.084 558.502 204.869 558.402 204.659 558.295C199.446 555.635 199.287 548.185 204.159 544.943L214.492 538.068L205.469 489.699L240.329 490.109L234.998 557.744Z" fill="#2F2E41"/>
<path d="M254.683 558.154C254.683 558.154 280.868 560.446 284.375 559.003C284.597 558.911 284.812 558.812 285.022 558.705C290.235 556.045 290.394 548.595 285.521 545.353L275.189 538.478L287.903 490.109H251.402L254.683 558.154Z" fill="#2F2E41"/>
<path d="M193.166 385.583L198.356 406.333C198.994 408.884 198.811 411.57 197.834 414.011C196.857 416.452 195.135 418.523 192.913 419.929V419.929C191.117 421.066 189.062 421.726 186.94 421.849C184.818 421.971 182.7 421.551 180.786 420.629C178.872 419.706 177.224 418.312 175.998 416.576C174.773 414.841 174.01 412.822 173.781 410.71L172.66 400.34L168.559 301.781C168.559 293.583 170.99 285.57 175.545 278.753C180.101 271.936 186.576 266.622 194.152 263.482L202.188 260.152L193.166 385.583Z" fill="#E6E6E6"/>
<path d="M323.583 300.962L323.558 301.544L320.245 381.099L319.605 396.47L319.482 399.52L318.358 409.89C318.174 411.595 317.641 413.243 316.792 414.733C315.944 416.223 314.798 417.523 313.425 418.551C312.053 419.58 310.484 420.315 308.815 420.712C307.146 421.109 305.414 421.158 303.725 420.857C302.036 420.557 300.427 419.912 298.999 418.963C297.57 418.015 296.351 416.783 295.419 415.344C294.487 413.905 293.86 412.289 293.579 410.598C293.298 408.907 293.368 407.176 293.784 405.513L298.976 384.763L298.861 383.222L298.172 373.581L289.953 259.332L297.992 262.66C305.563 265.807 312.034 271.124 316.588 277.939C321.142 284.755 323.576 292.766 323.583 300.962V300.962Z" fill="#E6E6E6"/>
<path d="M247.347 391.494C217.552 391.494 199.173 381.166 198.913 381.016L199.732 379.596C200.098 379.808 236.959 400.473 291.115 382.56L291.631 384.116C277.361 388.932 262.408 391.423 247.347 391.494V391.494Z" fill="#2F2E41"/>
<path d="M217.843 467.078C211.286 452.331 211.253 388.239 211.255 385.518L212.895 385.52C212.895 386.183 212.926 451.981 219.343 466.411L217.843 467.078Z" fill="#2F2E41"/>
<path d="M221.254 467.739C215.413 467.739 211.532 466.496 209.002 465.07C204.395 462.473 203.445 458.935 203.407 458.787L204.996 458.38L204.202 458.583L204.995 458.376C205.028 458.5 205.858 461.445 209.88 463.682C214.31 466.144 223.225 467.981 240.538 462.749L241.012 464.318C232.727 466.822 226.268 467.739 221.254 467.739Z" fill="#2F2E41"/>
<path d="M206.602 258.135L204.964 258.215L211.256 386.621L212.894 386.54L206.602 258.135Z" fill="#2F2E41"/>
<path d="M273.478 467.078L271.979 466.411C278.396 451.981 278.427 386.183 278.426 385.52L280.067 385.518C280.068 388.239 280.035 452.331 273.478 467.078Z" fill="#2F2E41"/>
<path d="M270.068 467.739C265.053 467.739 258.596 466.823 250.309 464.318L250.783 462.749C268.096 467.981 277.01 466.145 281.441 463.682C285.464 461.445 286.293 458.5 286.326 458.376L287.914 458.787C287.876 458.935 286.926 462.473 282.319 465.07C279.79 466.496 275.907 467.739 270.068 467.739Z" fill="#2F2E41"/>
<path d="M284.712 258.135L278.433 386.541L280.072 386.621L286.351 258.215L284.712 258.135Z" fill="#2F2E41"/>
<path d="M268.529 277.368L256.323 295.403H230.076L221.3 277.368H225.155L231.717 292.124H253.863L264.526 277.368H268.529Z" fill="#6C63FF"/>
<path d="M298.156 286.386L298.369 286.812L298.156 287.205V286.386Z" fill="black"/>
<path d="M325.224 300.962L325.199 301.544L309.639 306.061L300.01 286.812L309.861 268.76C314.661 272.643 318.532 277.551 321.19 283.122C323.848 288.694 325.226 294.789 325.224 300.962V300.962Z" fill="#FC8E51"/>
<path d="M167.55 300.962L167.574 301.544L183.134 306.061L192.764 286.812L182.913 268.76C178.112 272.643 174.242 277.551 171.583 283.122C168.925 288.694 167.547 294.789 167.55 300.962V300.962Z" fill="#FC8E51"/>
<path d="M245.251 263.841C269.26 263.841 288.723 244.388 288.723 220.391C288.723 196.394 269.26 176.941 245.251 176.941C221.241 176.941 201.778 196.394 201.778 220.391C201.778 244.388 221.241 263.841 245.251 263.841Z" fill="#E6E6E6"/>
<path d="M245.251 258.102C262.918 258.102 277.24 243.787 277.24 226.129C277.24 208.471 262.918 194.157 245.251 194.157C227.584 194.157 213.261 208.471 213.261 226.129C213.261 243.787 227.584 258.102 245.251 258.102Z" fill="#2F2E41"/>
<path d="M320.713 381.099L320.047 396.47L299.009 385.173L298.463 383.222L297.746 373.581L320.713 381.099Z" fill="#FC8E51"/>
<path d="M171.076 381.099L171.776 396.47L193.888 385.173L194.463 383.222L195.217 373.581L171.076 381.099Z" fill="#FC8E51"/>
<path d="M256.76 296.224H229.563L214.505 265.286L213.73 254.158L215.367 254.045L216.119 264.855L230.59 294.584H255.888L274.445 267.166L278.395 255.061L279.956 255.569L275.869 267.99L256.76 296.224Z" fill="#2F2E41"/>
</g>
<defs>
<linearGradient id="paint0_linear" x1="390.433" y1="268.624" x2="456.052" y2="268.624" gradientUnits="userSpaceOnUse">
<stop stop-color="white"/>
<stop offset="1" stop-color="white" stop-opacity="0.3"/>
</linearGradient>
<linearGradient id="paint1_linear" x1="41769.6" y1="41453.5" x2="47465.9" y2="41453.5" gradientUnits="userSpaceOnUse">
<stop stop-color="white"/>
<stop offset="1" stop-color="white" stop-opacity="0.3"/>
</linearGradient>
<clipPath id="clip0">
<rect width="645" height="618" fill="white"/>
</clipPath>
</defs>
</svg>
